<svg width="708" height="69" viewBox="0 0 708 69" fill="none" xmlns="http://www.w3.org/2000/svg">
<g clip-path="url(#clip0_4967_82609)">
<rect y="0.944336" width="708" height="68" rx="5" fill="white"/>
<g filter="url(#filter0_dddddd_4967_82609)">
<g clip-path="url(#clip1_4967_82609)">
<path d="M20 34.9443C20 27.2123 26.268 20.9443 34 20.9443C41.732 20.9443 48 27.2123 48 34.9443C48 42.6763 41.732 48.9443 34 48.9443C26.268 48.9443 20 42.6763 20 34.9443Z" fill="url(#paint0_radial_4967_82609)"/>
<path d="M24.2669 28.3779C24.7279 27.5072 25.2541 26.6625 26.0045 26.0241C27.3237 24.9018 29.8921 23.2778 33.7096 23.2778C38.9596 23.2778 41.0013 25.9028 42.168 26.7778C45.2521 29.0909 44.6215 33.8646 40.7679 33.7545L22.7168 33.2388C22.1312 33.222 21.8493 32.5131 22.2636 32.0988C22.3107 32.0518 22.3505 31.9979 22.3816 31.9391L24.2669 28.3779Z" fill="url(#paint1_linear_4967_82609)"/>
</g>
<rect x="30" y="33.9443" width="2" height="2" rx="1" fill="white" fill-opacity="0.5"/>
<rect x="27" y="33.9443" width="2" height="2" rx="1" fill="white" fill-opacity="0.5"/>
<rect x="33" y="33.9443" width="2" height="2" rx="1" fill="white" fill-opacity="0.5"/>
<rect x="36" y="33.9443" width="2" height="2" rx="1" fill="white" fill-opacity="0.5"/>
<rect x="39" y="33.9443" width="2" height="2" rx="1" fill="white" fill-opacity="0.5"/>
</g>
<g filter="url(#filter1_dddddddd_4967_82609)">
<g clip-path="url(#clip2_4967_82609)">
<path d="M148 34.9443C148 27.2123 154.268 20.9443 162 20.9443C169.732 20.9443 176 27.2123 176 34.9443C176 42.6763 169.732 48.9443 162 48.9443C154.268 48.9443 148 42.6763 148 34.9443Z" fill="url(#paint2_radial_4967_82609)"/>
<path d="M152.267 28.3779C152.728 27.5072 153.254 26.6625 154.004 26.0241C155.324 24.9018 157.892 23.2778 161.71 23.2778C166.96 23.2778 169.001 25.9028 170.168 26.7778C173.252 29.0909 172.621 33.8646 168.768 33.7545L150.717 33.2388C150.131 33.222 149.849 32.5131 150.264 32.0988C150.311 32.0518 150.35 31.9979 150.382 31.9391L152.267 28.3779Z" fill="url(#paint3_linear_4967_82609)"/>
</g>
<rect x="158" y="31.9443" width="2" height="6" rx="1" fill="white" fill-opacity="0.5"/>
<rect x="155" y="33.4443" width="2" height="3" rx="1" fill="white" fill-opacity="0.5"/>
<rect x="161" y="29.9443" width="2" height="10" rx="1" fill="white" fill-opacity="0.5"/>
<rect x="164" y="31.9443" width="2" height="6" rx="1" fill="white" fill-opacity="0.5"/>
<rect x="167" y="33.4443" width="2" height="3" rx="1" fill="white" fill-opacity="0.5"/>
</g>
<g filter="url(#filter2_ddddddd_4967_82609)">
<g clip-path="url(#clip3_4967_82609)">
<path d="M276 34.9443C276 27.2123 282.268 20.9443 290 20.9443C297.732 20.9443 304 27.2123 304 34.9443C304 42.6763 297.732 48.9443 290 48.9443C282.268 48.9443 276 42.6763 276 34.9443Z" fill="url(#paint4_radial_4967_82609)"/>
<path d="M280.267 28.3779C280.728 27.5072 281.254 26.6625 282.004 26.0241C283.324 24.9018 285.892 23.2778 289.71 23.2778C294.96 23.2778 297.001 25.9028 298.168 26.7778C301.252 29.0909 300.621 33.8646 296.768 33.7545L278.717 33.2388C278.131 33.222 277.849 32.5131 278.264 32.0988C278.311 32.0518 278.35 31.9979 278.382 31.9391L280.267 28.3779Z" fill="url(#paint5_linear_4967_82609)"/>
</g>
<rect x="286" y="32.4443" width="2" height="4.5" rx="1" fill="white" fill-opacity="0.5"/>
<rect x="283" y="33.9443" width="2" height="2" rx="1" fill="white" fill-opacity="0.5"/>
<rect x="289" y="31.4443" width="2" height="7" rx="1" fill="white" fill-opacity="0.5"/>
<rect x="292" y="32.9443" width="2" height="4.5" rx="1" fill="white" fill-opacity="0.5"/>
<rect x="295" y="33.9443" width="2" height="2" rx="1" fill="white" fill-opacity="0.5"/>
</g>
<g filter="url(#filter3_ddddd_4967_82609)">
<g clip-path="url(#clip4_4967_82609)">
<path d="M404 34.9443C404 27.2123 410.268 20.9443 418 20.9443C425.732 20.9443 432 27.2123 432 34.9443C432 42.6763 425.732 48.9443 418 48.9443C410.268 48.9443 404 42.6763 404 34.9443Z" fill="url(#paint6_radial_4967_82609)"/>
<path d="M408.267 28.3779C408.728 27.5072 409.254 26.6625 410.004 26.0241C411.324 24.9018 413.892 23.2778 417.71 23.2778C422.96 23.2778 425.001 25.9028 426.168 26.7778C429.252 29.0909 428.621 33.8646 424.768 33.7545L406.717 33.2388C406.131 33.222 405.849 32.5131 406.264 32.0988C406.311 32.0518 406.35 31.9979 406.382 31.9391L408.267 28.3779Z" fill="url(#paint7_linear_4967_82609)"/>
</g>
<rect x="414" y="33.9443" width="2" height="3" rx="1" fill="white" fill-opacity="0.5"/>
<rect x="411" y="33.9443" width="2" height="2" rx="1" fill="white" fill-opacity="0.5"/>
<rect x="417" y="32.4443" width="2" height="5" rx="1" fill="white" fill-opacity="0.5"/>
<rect x="420" y="32.9443" width="2" height="3" rx="1" fill="white" fill-opacity="0.5"/>
<rect x="423" y="33.9443" width="2" height="2" rx="1" fill="white" fill-opacity="0.5"/>
</g>
<g filter="url(#filter4_dddddd_4967_82609)">
<g clip-path="url(#clip5_4967_82609)">
<path d="M532 34.9443C532 27.2123 538.268 20.9443 546 20.9443C553.732 20.9443 560 27.2123 560 34.9443C560 42.6763 553.732 48.9443 546 48.9443C538.268 48.9443 532 42.6763 532 34.9443Z" fill="url(#paint8_radial_4967_82609)"/>
<path d="M536.267 28.3779C536.728 27.5072 537.254 26.6625 538.004 26.0241C539.324 24.9018 541.892 23.2778 545.71 23.2778C550.96 23.2778 553.001 25.9028 554.168 26.7778C557.252 29.0909 556.621 33.8646 552.768 33.7545L534.717 33.2388C534.131 33.222 533.849 32.5131 534.264 32.0988C534.311 32.0518 534.35 31.9979 534.382 31.9391L536.267 28.3779Z" fill="url(#paint9_linear_4967_82609)"/>
</g>
<rect x="542" y="32.9443" width="2" height="4" rx="1" fill="white" fill-opacity="0.5"/>
<rect x="539" y="33.9443" width="2" height="2" rx="1" fill="white" fill-opacity="0.5"/>
<rect x="545" y="32.4443" width="2" height="4.5" rx="1" fill="white" fill-opacity="0.5"/>
<rect x="548" y="32.9443" width="2" height="4" rx="1" fill="white" fill-opacity="0.5"/>
<rect x="551" y="33.9443" width="2" height="2" rx="1" fill="white" fill-opacity="0.5"/>
</g>
<g filter="url(#filter5_dddddd_4967_82609)">
<g clip-path="url(#clip6_4967_82609)">
<path d="M660 34.9443C660 27.2123 666.268 20.9443 674 20.9443C681.732 20.9443 688 27.2123 688 34.9443C688 42.6763 681.732 48.9443 674 48.9443C666.268 48.9443 660 42.6763 660 34.9443Z" fill="url(#paint10_radial_4967_82609)"/>
<path d="M664.267 28.3779C664.728 27.5072 665.254 26.6625 666.004 26.0241C667.324 24.9018 669.892 23.2778 673.71 23.2778C678.96 23.2778 681.001 25.9028 682.168 26.7778C685.252 29.0909 684.621 33.8646 680.768 33.7545L662.717 33.2388C662.131 33.222 661.849 32.5131 662.264 32.0988C662.311 32.0518 662.35 31.9979 662.382 31.9391L664.267 28.3779Z" fill="url(#paint11_linear_4967_82609)"/>
</g>
<rect x="670" y="33.9443" width="2" height="2" rx="1" fill="white" fill-opacity="0.5"/>
<rect x="667" y="33.9443" width="2" height="2" rx="1" fill="white" fill-opacity="0.5"/>
<rect x="673" y="33.9443" width="2" height="2" rx="1" fill="white" fill-opacity="0.5"/>
<rect x="676" y="33.9443" width="2" height="2" rx="1" fill="white" fill-opacity="0.5"/>
<rect x="679" y="33.9443" width="2" height="2" rx="1" fill="white" fill-opacity="0.5"/>
</g>
</g>
<rect x="0.5" y="1.44434" width="707" height="67" rx="4.5" stroke="#9747FF" stroke-dasharray="10 5"/>
<defs>
<filter id="filter0_dddddd_4967_82609" x="11.1311" y="7.94648" width="46" height="46" filterUnits="userSpaceOnUse" color-interpolation-filters="sRGB">
<feFlood flood-opacity="0" result="BackgroundImageFix"/>
<feColorMatrix in="SourceAlpha" type="matrix" values="0 0 0 0 0 0 0 0 0 0 0 0 0 0 0 0 0 0 127 0" result="hardAlpha"/>
<feOffset dx="0.00242735" dy="-0.0740343"/>
<feGaussianBlur stdDeviation="0.177083"/>
<feColorMatrix type="matrix" values="0 0 0 0 0.188235 0 0 0 0 0.52549 0 0 0 0 0.968627 0 0 0 0.0409259 0"/>
<feBlend mode="normal" in2="BackgroundImageFix" result="effect1_dropShadow_4967_82609"/>
<feColorMatrix in="SourceAlpha" type="matrix" values="0 0 0 0 0 0 0 0 0 0 0 0 0 0 0 0 0 0 127 0" result="hardAlpha"/>
<feOffset dx="0.0106804" dy="-0.325751"/>
<feGaussianBlur stdDeviation="0.366667"/>
<feColorMatrix type="matrix" values="0 0 0 0 0.188235 0 0 0 0 0.52549 0 0 0 0 0.968627 0 0 0 0.0667407 0"/>
<feBlend mode="normal" in2="effect1_dropShadow_4967_82609" result="effect2_dropShadow_4967_82609"/>
<feColorMatrix in="SourceAlpha" type="matrix" values="0 0 0 0 0 0 0 0 0 0 0 0 0 0 0 0 0 0 127 0" result="hardAlpha"/>
<feOffset dx="0.0262154" dy="-0.79957"/>
<feGaussianBlur stdDeviation="0.73125"/>
<feColorMatrix type="matrix" values="0 0 0 0 0.188235 0 0 0 0 0.52549 0 0 0 0 0.968627 0 0 0 0.085 0"/>
<feBlend mode="normal" in2="effect2_dropShadow_4967_82609" result="effect3_dropShadow_4967_82609"/>
<feColorMatrix in="SourceAlpha" type="matrix" values="0 0 0 0 0 0 0 0 0 0 0 0 0 0 0 0 0 0 127 0" result="hardAlpha"/>
<feOffset dx="0.050489" dy="-1.53991"/>
<feGaussianBlur stdDeviation="1.43333"/>
<feColorMatrix type="matrix" values="0 0 0 0 0.188235 0 0 0 0 0.52549 0 0 0 0 0.968627 0 0 0 0.103259 0"/>
<feBlend mode="normal" in2="effect3_dropShadow_4967_82609" result="effect4_dropShadow_4967_82609"/>
<feColorMatrix in="SourceAlpha" type="matrix" values="0 0 0 0 0 0 0 0 0 0 0 0 0 0 0 0 0 0 127 0" result="hardAlpha"/>
<feOffset dx="0.0849574" dy="-2.5912"/>
<feGaussianBlur stdDeviation="2.63542"/>
<feColorMatrix type="matrix" values="0 0 0 0 0.188235 0 0 0 0 0.52549 0 0 0 0 0.968627 0 0 0 0.129074 0"/>
<feBlend mode="normal" in2="effect4_dropShadow_4967_82609" result="effect5_dropShadow_4967_82609"/>
<feColorMatrix in="SourceAlpha" type="matrix" values="0 0 0 0 0 0 0 0 0 0 0 0 0 0 0 0 0 0 127 0" result="hardAlpha"/>
<feOffset dx="0.131077" dy="-3.99785"/>
<feGaussianBlur stdDeviation="4.5"/>
<feColorMatrix type="matrix" values="0 0 0 0 0.188235 0 0 0 0 0.52549 0 0 0 0 0.968627 0 0 0 0.17 0"/>
<feBlend mode="normal" in2="effect5_dropShadow_4967_82609" result="effect6_dropShadow_4967_82609"/>
<feBlend mode="normal" in="SourceGraphic" in2="effect6_dropShadow_4967_82609" result="shape"/>
</filter>
<filter id="filter1_dddddddd_4967_82609" x="34.9391" y="-118.035" width="252" height="252" filterUnits="userSpaceOnUse" color-interpolation-filters="sRGB">
<feFlood flood-opacity="0" result="BackgroundImageFix"/>
<feColorMatrix in="SourceAlpha" type="matrix" values="0 0 0 0 0 0 0 0 0 0 0 0 0 0 0 0 0 0 127 0" result="hardAlpha"/>
<feOffset dx="-0.0107746" dy="-0.274007"/>
<feGaussianBlur stdDeviation="1.71719"/>
<feColorMatrix type="matrix" values="0 0 0 0 0.188235 0 0 0 0 0.52549 0 0 0 0 0.968627 0 0 0 0.0648125 0"/>
<feBlend mode="normal" in2="BackgroundImageFix" result="effect1_dropShadow_4967_82609"/>
<feColorMatrix in="SourceAlpha" type="matrix" values="0 0 0 0 0 0 0 0 0 0 0 0 0 0 0 0 0 0 127 0" result="hardAlpha"/>
<feOffset dx="-0.0464138" dy="-1.18034"/>
<feGaussianBlur stdDeviation="3.2375"/>
<feColorMatrix type="matrix" values="0 0 0 0 0.188235 0 0 0 0 0.52549 0 0 0 0 0.968627 0 0 0 0.1105 0"/>
<feBlend mode="normal" in2="effect1_dropShadow_4967_82609" result="effect2_dropShadow_4967_82609"/>
<feColorMatrix in="SourceAlpha" type="matrix" values="0 0 0 0 0 0 0 0 0 0 0 0 0 0 0 0 0 0 127 0" result="hardAlpha"/>
<feOffset dx="-0.11189" dy="-2.84546"/>
<feGaussianBlur stdDeviation="5.41406"/>
<feColorMatrix type="matrix" values="0 0 0 0 0.188235 0 0 0 0 0.52549 0 0 0 0 0.968627 0 0 0 0.143438 0"/>
<feBlend mode="normal" in2="effect2_dropShadow_4967_82609" result="effect3_dropShadow_4967_82609"/>
<feColorMatrix in="SourceAlpha" type="matrix" values="0 0 0 0 0 0 0 0 0 0 0 0 0 0 0 0 0 0 127 0" result="hardAlpha"/>
<feOffset dx="-0.212177" dy="-5.39583"/>
<feGaussianBlur stdDeviation="9.1"/>
<feColorMatrix type="matrix" values="0 0 0 0 0.188235 0 0 0 0 0.52549 0 0 0 0 0.968627 0 0 0 0.17 0"/>
<feBlend mode="normal" in2="effect3_dropShadow_4967_82609" result="effect4_dropShadow_4967_82609"/>
<feColorMatrix in="SourceAlpha" type="matrix" values="0 0 0 0 0 0 0 0 0 0 0 0 0 0 0 0 0 0 127 0" result="hardAlpha"/>
<feOffset dx="-0.352247" dy="-8.95792"/>
<feGaussianBlur stdDeviation="15.1484"/>
<feColorMatrix type="matrix" values="0 0 0 0 0.188235 0 0 0 0 0.52549 0 0 0 0 0.968627 0 0 0 0.196562 0"/>
<feBlend mode="normal" in2="effect4_dropShadow_4967_82609" result="effect5_dropShadow_4967_82609"/>
<feColorMatrix in="SourceAlpha" type="matrix" values="0 0 0 0 0 0 0 0 0 0 0 0 0 0 0 0 0 0 127 0" result="hardAlpha"/>
<feOffset dx="-0.537074" dy="-13.6582"/>
<feGaussianBlur stdDeviation="24.4125"/>
<feColorMatrix type="matrix" values="0 0 0 0 0.188235 0 0 0 0 0.52549 0 0 0 0 0.968627 0 0 0 0.2295 0"/>
<feBlend mode="normal" in2="effect5_dropShadow_4967_82609" result="effect6_dropShadow_4967_82609"/>
<feColorMatrix in="SourceAlpha" type="matrix" values="0 0 0 0 0 0 0 0 0 0 0 0 0 0 0 0 0 0 127 0" result="hardAlpha"/>
<feOffset dx="-0.771629" dy="-19.6231"/>
<feGaussianBlur stdDeviation="37.7453"/>
<feColorMatrix type="matrix" values="0 0 0 0 0.188235 0 0 0 0 0.52549 0 0 0 0 0.968627 0 0 0 0.275187 0"/>
<feBlend mode="normal" in2="effect6_dropShadow_4967_82609" result="effect7_dropShadow_4967_82609"/>
<feColorMatrix in="SourceAlpha" type="matrix" values="0 0 0 0 0 0 0 0 0 0 0 0 0 0 0 0 0 0 127 0" result="hardAlpha"/>
<feOffset dx="-1.06089" dy="-26.9791"/>
<feGaussianBlur stdDeviation="56"/>
<feColorMatrix type="matrix" values="0 0 0 0 0.188235 0 0 0 0 0.52549 0 0 0 0 0.968627 0 0 0 0.34 0"/>
<feBlend mode="normal" in2="effect7_dropShadow_4967_82609" result="effect8_dropShadow_4967_82609"/>
<feBlend mode="normal" in="SourceGraphic" in2="effect8_dropShadow_4967_82609" result="shape"/>
</filter>
<filter id="filter2_ddddddd_4967_82609" x="162.939" y="-118.035" width="252" height="252" filterUnits="userSpaceOnUse" color-interpolation-filters="sRGB">
<feFlood flood-opacity="0" result="BackgroundImageFix"/>
<feColorMatrix in="SourceAlpha" type="matrix" values="0 0 0 0 0 0 0 0 0 0 0 0 0 0 0 0 0 0 127 0" result="hardAlpha"/>
<feOffset dx="-0.0107746" dy="-0.274007"/>
<feGaussianBlur stdDeviation="1.71719"/>
<feColorMatrix type="matrix" values="0 0 0 0 0.188235 0 0 0 0 0.52549 0 0 0 0 0.968627 0 0 0 0.0648125 0"/>
<feBlend mode="normal" in2="BackgroundImageFix" result="effect1_dropShadow_4967_82609"/>
<feColorMatrix in="SourceAlpha" type="matrix" values="0 0 0 0 0 0 0 0 0 0 0 0 0 0 0 0 0 0 127 0" result="hardAlpha"/>
<feOffset dx="-0.0464138" dy="-1.18034"/>
<feGaussianBlur stdDeviation="3.2375"/>
<feColorMatrix type="matrix" values="0 0 0 0 0.188235 0 0 0 0 0.52549 0 0 0 0 0.968627 0 0 0 0.1105 0"/>
<feBlend mode="normal" in2="effect1_dropShadow_4967_82609" result="effect2_dropShadow_4967_82609"/>
<feColorMatrix in="SourceAlpha" type="matrix" values="0 0 0 0 0 0 0 0 0 0 0 0 0 0 0 0 0 0 127 0" result="hardAlpha"/>
<feOffset dx="-0.11189" dy="-2.84546"/>
<feGaussianBlur stdDeviation="5.41406"/>
<feColorMatrix type="matrix" values="0 0 0 0 0.188235 0 0 0 0 0.52549 0 0 0 0 0.968627 0 0 0 0.143438 0"/>
<feBlend mode="normal" in2="effect2_dropShadow_4967_82609" result="effect3_dropShadow_4967_82609"/>
<feColorMatrix in="SourceAlpha" type="matrix" values="0 0 0 0 0 0 0 0 0 0 0 0 0 0 0 0 0 0 127 0" result="hardAlpha"/>
<feOffset dx="-0.212177" dy="-5.39583"/>
<feGaussianBlur stdDeviation="9.1"/>
<feColorMatrix type="matrix" values="0 0 0 0 0.188235 0 0 0 0 0.52549 0 0 0 0 0.968627 0 0 0 0.17 0"/>
<feBlend mode="normal" in2="effect3_dropShadow_4967_82609" result="effect4_dropShadow_4967_82609"/>
<feColorMatrix in="SourceAlpha" type="matrix" values="0 0 0 0 0 0 0 0 0 0 0 0 0 0 0 0 0 0 127 0" result="hardAlpha"/>
<feOffset dx="-0.537074" dy="-13.6582"/>
<feGaussianBlur stdDeviation="24.4125"/>
<feColorMatrix type="matrix" values="0 0 0 0 0.188235 0 0 0 0 0.52549 0 0 0 0 0.968627 0 0 0 0.2295 0"/>
<feBlend mode="normal" in2="effect4_dropShadow_4967_82609" result="effect5_dropShadow_4967_82609"/>
<feColorMatrix in="SourceAlpha" type="matrix" values="0 0 0 0 0 0 0 0 0 0 0 0 0 0 0 0 0 0 127 0" result="hardAlpha"/>
<feOffset dx="-0.771629" dy="-19.6231"/>
<feGaussianBlur stdDeviation="37.7453"/>
<feColorMatrix type="matrix" values="0 0 0 0 0.188235 0 0 0 0 0.52549 0 0 0 0 0.968627 0 0 0 0.275187 0"/>
<feBlend mode="normal" in2="effect5_dropShadow_4967_82609" result="effect6_dropShadow_4967_82609"/>
<feColorMatrix in="SourceAlpha" type="matrix" values="0 0 0 0 0 0 0 0 0 0 0 0 0 0 0 0 0 0 127 0" result="hardAlpha"/>
<feOffset dx="-1.06089" dy="-26.9791"/>
<feGaussianBlur stdDeviation="56"/>
<feColorMatrix type="matrix" values="0 0 0 0 0.188235 0 0 0 0 0.52549 0 0 0 0 0.968627 0 0 0 0.34 0"/>
<feBlend mode="normal" in2="effect6_dropShadow_4967_82609" result="effect7_dropShadow_4967_82609"/>
<feBlend mode="normal" in="SourceGraphic" in2="effect7_dropShadow_4967_82609" result="shape"/>
</filter>
<filter id="filter3_ddddd_4967_82609" x="290.939" y="-118.035" width="252" height="252" filterUnits="userSpaceOnUse" color-interpolation-filters="sRGB">
<feFlood flood-opacity="0" result="BackgroundImageFix"/>
<feColorMatrix in="SourceAlpha" type="matrix" values="0 0 0 0 0 0 0 0 0 0 0 0 0 0 0 0 0 0 127 0" result="hardAlpha"/>
<feOffset dx="-0.0107746" dy="-0.274007"/>
<feGaussianBlur stdDeviation="1.71719"/>
<feColorMatrix type="matrix" values="0 0 0 0 0.188235 0 0 0 0 0.52549 0 0 0 0 0.968627 0 0 0 0.0648125 0"/>
<feBlend mode="normal" in2="BackgroundImageFix" result="effect1_dropShadow_4967_82609"/>
<feColorMatrix in="SourceAlpha" type="matrix" values="0 0 0 0 0 0 0 0 0 0 0 0 0 0 0 0 0 0 127 0" result="hardAlpha"/>
<feOffset dx="-0.0464138" dy="-1.18034"/>
<feGaussianBlur stdDeviation="3.2375"/>
<feColorMatrix type="matrix" values="0 0 0 0 0.188235 0 0 0 0 0.52549 0 0 0 0 0.968627 0 0 0 0.1105 0"/>
<feBlend mode="normal" in2="effect1_dropShadow_4967_82609" result="effect2_dropShadow_4967_82609"/>
<feColorMatrix in="SourceAlpha" type="matrix" values="0 0 0 0 0 0 0 0 0 0 0 0 0 0 0 0 0 0 127 0" result="hardAlpha"/>
<feOffset dx="-0.11189" dy="-2.84546"/>
<feGaussianBlur stdDeviation="5.41406"/>
<feColorMatrix type="matrix" values="0 0 0 0 0.188235 0 0 0 0 0.52549 0 0 0 0 0.968627 0 0 0 0.143438 0"/>
<feBlend mode="normal" in2="effect2_dropShadow_4967_82609" result="effect3_dropShadow_4967_82609"/>
<feColorMatrix in="SourceAlpha" type="matrix" values="0 0 0 0 0 0 0 0 0 0 0 0 0 0 0 0 0 0 127 0" result="hardAlpha"/>
<feOffset dx="-0.771629" dy="-19.6231"/>
<feGaussianBlur stdDeviation="37.7453"/>
<feColorMatrix type="matrix" values="0 0 0 0 0.188235 0 0 0 0 0.52549 0 0 0 0 0.968627 0 0 0 0.275187 0"/>
<feBlend mode="normal" in2="effect3_dropShadow_4967_82609" result="effect4_dropShadow_4967_82609"/>
<feColorMatrix in="SourceAlpha" type="matrix" values="0 0 0 0 0 0 0 0 0 0 0 0 0 0 0 0 0 0 127 0" result="hardAlpha"/>
<feOffset dx="-1.06089" dy="-26.9791"/>
<feGaussianBlur stdDeviation="56"/>
<feColorMatrix type="matrix" values="0 0 0 0 0.188235 0 0 0 0 0.52549 0 0 0 0 0.968627 0 0 0 0.34 0"/>
<feBlend mode="normal" in2="effect4_dropShadow_4967_82609" result="effect5_dropShadow_4967_82609"/>
<feBlend mode="normal" in="SourceGraphic" in2="effect5_dropShadow_4967_82609" result="shape"/>
</filter>
<filter id="filter4_dddddd_4967_82609" x="418.939" y="-118.035" width="252" height="252" filterUnits="userSpaceOnUse" color-interpolation-filters="sRGB">
<feFlood flood-opacity="0" result="BackgroundImageFix"/>
<feColorMatrix in="SourceAlpha" type="matrix" values="0 0 0 0 0 0 0 0 0 0 0 0 0 0 0 0 0 0 127 0" result="hardAlpha"/>
<feOffset dx="-0.0107746" dy="-0.274007"/>
<feGaussianBlur stdDeviation="1.71719"/>
<feColorMatrix type="matrix" values="0 0 0 0 0.188235 0 0 0 0 0.52549 0 0 0 0 0.968627 0 0 0 0.0648125 0"/>
<feBlend mode="normal" in2="BackgroundImageFix" result="effect1_dropShadow_4967_82609"/>
<feColorMatrix in="SourceAlpha" type="matrix" values="0 0 0 0 0 0 0 0 0 0 0 0 0 0 0 0 0 0 127 0" result="hardAlpha"/>
<feOffset dx="-0.0464138" dy="-1.18034"/>
<feGaussianBlur stdDeviation="3.2375"/>
<feColorMatrix type="matrix" values="0 0 0 0 0.188235 0 0 0 0 0.52549 0 0 0 0 0.968627 0 0 0 0.1105 0"/>
<feBlend mode="normal" in2="effect1_dropShadow_4967_82609" result="effect2_dropShadow_4967_82609"/>
<feColorMatrix in="SourceAlpha" type="matrix" values="0 0 0 0 0 0 0 0 0 0 0 0 0 0 0 0 0 0 127 0" result="hardAlpha"/>
<feOffset dx="-0.11189" dy="-2.84546"/>
<feGaussianBlur stdDeviation="5.41406"/>
<feColorMatrix type="matrix" values="0 0 0 0 0.188235 0 0 0 0 0.52549 0 0 0 0 0.968627 0 0 0 0.143438 0"/>
<feBlend mode="normal" in2="effect2_dropShadow_4967_82609" result="effect3_dropShadow_4967_82609"/>
<feColorMatrix in="SourceAlpha" type="matrix" values="0 0 0 0 0 0 0 0 0 0 0 0 0 0 0 0 0 0 127 0" result="hardAlpha"/>
<feOffset dx="-0.212177" dy="-5.39583"/>
<feGaussianBlur stdDeviation="9.1"/>
<feColorMatrix type="matrix" values="0 0 0 0 0.188235 0 0 0 0 0.52549 0 0 0 0 0.968627 0 0 0 0.17 0"/>
<feBlend mode="normal" in2="effect3_dropShadow_4967_82609" result="effect4_dropShadow_4967_82609"/>
<feColorMatrix in="SourceAlpha" type="matrix" values="0 0 0 0 0 0 0 0 0 0 0 0 0 0 0 0 0 0 127 0" result="hardAlpha"/>
<feOffset dx="-0.771629" dy="-19.6231"/>
<feGaussianBlur stdDeviation="37.7453"/>
<feColorMatrix type="matrix" values="0 0 0 0 0.188235 0 0 0 0 0.52549 0 0 0 0 0.968627 0 0 0 0.275187 0"/>
<feBlend mode="normal" in2="effect4_dropShadow_4967_82609" result="effect5_dropShadow_4967_82609"/>
<feColorMatrix in="SourceAlpha" type="matrix" values="0 0 0 0 0 0 0 0 0 0 0 0 0 0 0 0 0 0 127 0" result="hardAlpha"/>
<feOffset dx="-1.06089" dy="-26.9791"/>
<feGaussianBlur stdDeviation="56"/>
<feColorMatrix type="matrix" values="0 0 0 0 0.188235 0 0 0 0 0.52549 0 0 0 0 0.968627 0 0 0 0.34 0"/>
<feBlend mode="normal" in2="effect5_dropShadow_4967_82609" result="effect6_dropShadow_4967_82609"/>
<feBlend mode="normal" in="SourceGraphic" in2="effect6_dropShadow_4967_82609" result="shape"/>
</filter>
<filter id="filter5_dddddd_4967_82609" x="651.131" y="7.94648" width="46" height="46" filterUnits="userSpaceOnUse" color-interpolation-filters="sRGB">
<feFlood flood-opacity="0" result="BackgroundImageFix"/>
<feColorMatrix in="SourceAlpha" type="matrix" values="0 0 0 0 0 0 0 0 0 0 0 0 0 0 0 0 0 0 127 0" result="hardAlpha"/>
<feOffset dx="0.00242735" dy="-0.0740343"/>
<feGaussianBlur stdDeviation="0.177083"/>
<feColorMatrix type="matrix" values="0 0 0 0 0.188235 0 0 0 0 0.52549 0 0 0 0 0.968627 0 0 0 0.0409259 0"/>
<feBlend mode="normal" in2="BackgroundImageFix" result="effect1_dropShadow_4967_82609"/>
<feColorMatrix in="SourceAlpha" type="matrix" values="0 0 0 0 0 0 0 0 0 0 0 0 0 0 0 0 0 0 127 0" result="hardAlpha"/>
<feOffset dx="0.0106804" dy="-0.325751"/>
<feGaussianBlur stdDeviation="0.366667"/>
<feColorMatrix type="matrix" values="0 0 0 0 0.188235 0 0 0 0 0.52549 0 0 0 0 0.968627 0 0 0 0.0667407 0"/>
<feBlend mode="normal" in2="effect1_dropShadow_4967_82609" result="effect2_dropShadow_4967_82609"/>
<feColorMatrix in="SourceAlpha" type="matrix" values="0 0 0 0 0 0 0 0 0 0 0 0 0 0 0 0 0 0 127 0" result="hardAlpha"/>
<feOffset dx="0.0262154" dy="-0.79957"/>
<feGaussianBlur stdDeviation="0.73125"/>
<feColorMatrix type="matrix" values="0 0 0 0 0.188235 0 0 0 0 0.52549 0 0 0 0 0.968627 0 0 0 0.085 0"/>
<feBlend mode="normal" in2="effect2_dropShadow_4967_82609" result="effect3_dropShadow_4967_82609"/>
<feColorMatrix in="SourceAlpha" type="matrix" values="0 0 0 0 0 0 0 0 0 0 0 0 0 0 0 0 0 0 127 0" result="hardAlpha"/>
<feOffset dx="0.050489" dy="-1.53991"/>
<feGaussianBlur stdDeviation="1.43333"/>
<feColorMatrix type="matrix" values="0 0 0 0 0.188235 0 0 0 0 0.52549 0 0 0 0 0.968627 0 0 0 0.103259 0"/>
<feBlend mode="normal" in2="effect3_dropShadow_4967_82609" result="effect4_dropShadow_4967_82609"/>
<feColorMatrix in="SourceAlpha" type="matrix" values="0 0 0 0 0 0 0 0 0 0 0 0 0 0 0 0 0 0 127 0" result="hardAlpha"/>
<feOffset dx="0.0849574" dy="-2.5912"/>
<feGaussianBlur stdDeviation="2.63542"/>
<feColorMatrix type="matrix" values="0 0 0 0 0.188235 0 0 0 0 0.52549 0 0 0 0 0.968627 0 0 0 0.129074 0"/>
<feBlend mode="normal" in2="effect4_dropShadow_4967_82609" result="effect5_dropShadow_4967_82609"/>
<feColorMatrix in="SourceAlpha" type="matrix" values="0 0 0 0 0 0 0 0 0 0 0 0 0 0 0 0 0 0 127 0" result="hardAlpha"/>
<feOffset dx="0.131077" dy="-3.99785"/>
<feGaussianBlur stdDeviation="4.5"/>
<feColorMatrix type="matrix" values="0 0 0 0 0.188235 0 0 0 0 0.52549 0 0 0 0 0.968627 0 0 0 0.17 0"/>
<feBlend mode="normal" in2="effect5_dropShadow_4967_82609" result="effect6_dropShadow_4967_82609"/>
<feBlend mode="normal" in="SourceGraphic" in2="effect6_dropShadow_4967_82609" result="shape"/>
</filter>
<radialGradient id="paint0_radial_4967_82609" cx="0" cy="0" r="1" gradientUnits="userSpaceOnUse" gradientTransform="translate(34 31.736) rotate(90) scale(17.2083)">
<stop stop-color="#293F88"/>
<stop offset="0.415" stop-color="#3089FC"/>
<stop offset="1" stop-color="white"/>
</radialGradient>
<linearGradient id="paint1_linear_4967_82609" x1="34.0013" y1="23.2778" x2="33.7096" y2="30.8612" gradientUnits="userSpaceOnUse">
<stop stop-color="#D9D9D9"/>
<stop offset="1" stop-color="#D9D9D9" stop-opacity="0"/>
</linearGradient>
<radialGradient id="paint2_radial_4967_82609" cx="0" cy="0" r="1" gradientUnits="userSpaceOnUse" gradientTransform="translate(162 31.736) rotate(90) scale(17.2083)">
<stop offset="0.1" stop-color="#293F88"/>
<stop offset="0.74" stop-color="#3089FC"/>
<stop offset="1" stop-color="white"/>
</radialGradient>
<linearGradient id="paint3_linear_4967_82609" x1="162.001" y1="23.2778" x2="161.71" y2="30.8612" gradientUnits="userSpaceOnUse">
<stop stop-color="#D9D9D9"/>
<stop offset="1" stop-color="#D9D9D9" stop-opacity="0"/>
</linearGradient>
<radialGradient id="paint4_radial_4967_82609" cx="0" cy="0" r="1" gradientUnits="userSpaceOnUse" gradientTransform="translate(290 31.736) rotate(90) scale(17.2083)">
<stop offset="0.1" stop-color="#293F88"/>
<stop offset="0.67" stop-color="#3089FC"/>
<stop offset="1" stop-color="white"/>
</radialGradient>
<linearGradient id="paint5_linear_4967_82609" x1="290.001" y1="23.2778" x2="289.71" y2="30.8612" gradientUnits="userSpaceOnUse">
<stop stop-color="#D9D9D9"/>
<stop offset="1" stop-color="#D9D9D9" stop-opacity="0"/>
</linearGradient>
<radialGradient id="paint6_radial_4967_82609" cx="0" cy="0" r="1" gradientUnits="userSpaceOnUse" gradientTransform="translate(418 31.736) rotate(90) scale(17.2083)">
<stop offset="0.1" stop-color="#293F88"/>
<stop offset="0.505" stop-color="#3089FC"/>
<stop offset="1" stop-color="white"/>
</radialGradient>
<linearGradient id="paint7_linear_4967_82609" x1="418.001" y1="23.2778" x2="417.71" y2="30.8612" gradientUnits="userSpaceOnUse">
<stop stop-color="#D9D9D9"/>
<stop offset="1" stop-color="#D9D9D9" stop-opacity="0"/>
</linearGradient>
<radialGradient id="paint8_radial_4967_82609" cx="0" cy="0" r="1" gradientUnits="userSpaceOnUse" gradientTransform="translate(546 31.736) rotate(90) scale(17.2083)">
<stop offset="0.1" stop-color="#293F88"/>
<stop offset="0.57" stop-color="#3089FC"/>
<stop offset="1" stop-color="white"/>
</radialGradient>
<linearGradient id="paint9_linear_4967_82609" x1="546.001" y1="23.2778" x2="545.71" y2="30.8612" gradientUnits="userSpaceOnUse">
<stop stop-color="#D9D9D9"/>
<stop offset="1" stop-color="#D9D9D9" stop-opacity="0"/>
</linearGradient>
<radialGradient id="paint10_radial_4967_82609" cx="0" cy="0" r="1" gradientUnits="userSpaceOnUse" gradientTransform="translate(674 31.736) rotate(90) scale(17.2083)">
<stop stop-color="#293F88"/>
<stop offset="0.415" stop-color="#3089FC"/>
<stop offset="1" stop-color="white"/>
</radialGradient>
<linearGradient id="paint11_linear_4967_82609" x1="674.001" y1="23.2778" x2="673.71" y2="30.8612" gradientUnits="userSpaceOnUse">
<stop stop-color="#D9D9D9"/>
<stop offset="1" stop-color="#D9D9D9" stop-opacity="0"/>
</linearGradient>
<clipPath id="clip0_4967_82609">
<rect y="0.944336" width="708" height="68" rx="5" fill="white"/>
</clipPath>
<clipPath id="clip1_4967_82609">
<path d="M20 34.9443C20 27.2123 26.268 20.9443 34 20.9443C41.732 20.9443 48 27.2123 48 34.9443C48 42.6763 41.732 48.9443 34 48.9443C26.268 48.9443 20 42.6763 20 34.9443Z" fill="white"/>
</clipPath>
<clipPath id="clip2_4967_82609">
<path d="M148 34.9443C148 27.2123 154.268 20.9443 162 20.9443C169.732 20.9443 176 27.2123 176 34.9443C176 42.6763 169.732 48.9443 162 48.9443C154.268 48.9443 148 42.6763 148 34.9443Z" fill="white"/>
</clipPath>
<clipPath id="clip3_4967_82609">
<path d="M276 34.9443C276 27.2123 282.268 20.9443 290 20.9443C297.732 20.9443 304 27.2123 304 34.9443C304 42.6763 297.732 48.9443 290 48.9443C282.268 48.9443 276 42.6763 276 34.9443Z" fill="white"/>
</clipPath>
<clipPath id="clip4_4967_82609">
<path d="M404 34.9443C404 27.2123 410.268 20.9443 418 20.9443C425.732 20.9443 432 27.2123 432 34.9443C432 42.6763 425.732 48.9443 418 48.9443C410.268 48.9443 404 42.6763 404 34.9443Z" fill="white"/>
</clipPath>
<clipPath id="clip5_4967_82609">
<path d="M532 34.9443C532 27.2123 538.268 20.9443 546 20.9443C553.732 20.9443 560 27.2123 560 34.9443C560 42.6763 553.732 48.9443 546 48.9443C538.268 48.9443 532 42.6763 532 34.9443Z" fill="white"/>
</clipPath>
<clipPath id="clip6_4967_82609">
<path d="M660 34.9443C660 27.2123 666.268 20.9443 674 20.9443C681.732 20.9443 688 27.2123 688 34.9443C688 42.6763 681.732 48.9443 674 48.9443C666.268 48.9443 660 42.6763 660 34.9443Z" fill="white"/>
</clipPath>
</defs>
</svg>
